<svg width="50" height="73" viewBox="0 0 50 73" fill="none" xmlns="http://www.w3.org/2000/svg">
<path d="M17.099 54.104L21.5009 38.462C21.5009 38.462 12.5009 17.233 10.0609 11.268C7.62094 5.303 12.6029 1 12.6029 1L25.089 30.924H25.1009L37.5879 1.002C37.5879 1.002 42.5749 5.302 40.1319 11.27C37.6889 17.238 28.6889 38.462 28.6889 38.462L33.0609 53.994" stroke="white" stroke-width="2" stroke-linecap="round" stroke-linejoin="round"/>
<path d="M21.0331 61.83C21.0337 63.9776 20.3111 66.0628 18.9818 67.7496C17.6525 69.4363 15.7939 70.6263 13.7057 71.1277C11.6174 71.629 9.42121 71.4126 7.47101 70.5132C5.5208 69.6139 3.93022 68.084 2.95575 66.1702C1.98127 64.2565 1.67966 62.0703 2.09949 59.9642C2.51931 57.858 3.63616 55.9546 5.26996 54.5607C6.90376 53.1669 8.95929 52.3638 11.1053 52.2809C13.2513 52.1981 15.3627 52.8403 17.0991 54.104" stroke="white" stroke-width="2" stroke-linecap="round" stroke-linejoin="round"/>
<path d="M33.0611 53.995C34.8146 52.771 36.9281 52.1707 39.0633 52.29C41.1985 52.4093 43.2318 53.2415 44.8381 54.6532C46.4443 56.065 47.5306 57.9748 47.9229 60.077C48.3153 62.1792 47.991 64.3522 47.0022 66.2484C46.0134 68.1445 44.4171 69.6541 42.4687 70.5356C40.5203 71.4171 38.3326 71.6195 36.2556 71.1104C34.1785 70.6014 32.3323 69.4102 31.0124 67.7277C29.6924 66.0452 28.9751 63.9685 28.9751 61.83" stroke="white" stroke-width="2" stroke-linecap="round" stroke-linejoin="round"/>
<path d="M21.0332 61.8301C21.0952 59.1791 21.6132 43.3741 25.0072 43.3741C28.4012 43.3741 28.9152 59.1841 28.9742 61.7031" stroke="white" stroke-width="2" stroke-linecap="round" stroke-linejoin="round"/>
</svg>
