<svg width="65" height="98" viewBox="0 0 65 98" fill="none" xmlns="http://www.w3.org/2000/svg">
<path d="M21.8895 72.4703L27.8011 51.5833C27.8011 51.5833 15.7205 23.2319 12.4386 15.2658C9.15674 7.29967 15.8522 1.55371 15.8522 1.55371L32.6186 41.5161H32.6346L49.4018 1.55371C49.4018 1.55371 56.0989 7.29967 52.817 15.2658C49.5351 23.2319 37.4528 51.5833 37.4528 51.5833L43.324 72.3251" stroke="white" stroke-width="3" stroke-linecap="round" stroke-linejoin="round"/>
<path d="M27.1714 82.7874C27.1716 85.6553 26.2007 88.4397 24.4153 90.6918C22.6299 92.9439 20.1341 94.5325 17.33 95.2015C14.5259 95.8705 11.577 95.581 8.95858 94.3796C6.34017 93.1781 4.20483 91.1348 2.89671 88.579C1.58859 86.0232 1.18392 83.1037 1.74793 80.2912C2.31194 77.4787 3.81175 74.937 6.00566 73.0759C8.19956 71.2147 10.9597 70.1424 13.8412 70.0319C16.7227 69.9215 19.5577 70.7792 21.8892 72.4669" stroke="white" stroke-width="3" stroke-linecap="round" stroke-linejoin="round"/>
<path d="M43.3228 72.3251C45.6771 70.6898 48.515 69.8872 51.3822 70.0458C54.2495 70.2045 56.9803 71.3151 59.1377 73.2001C61.2951 75.0851 62.7543 77.6353 63.2818 80.4427C63.8093 83.2501 63.3746 86.1524 62.0473 88.685C60.7199 91.2176 58.5766 93.2341 55.9605 94.4118C53.3443 95.5896 50.4066 95.8604 47.6173 95.181C44.8281 94.5016 42.3486 92.9112 40.5758 90.6644C38.8029 88.4176 37.8392 85.6443 37.8389 82.7883" stroke="white" stroke-width="3" stroke-linecap="round" stroke-linejoin="round"/>
<path d="M27.1714 82.7874C27.2558 79.2465 27.951 58.1405 32.5077 58.1405C37.0795 58.1405 37.7553 79.2549 37.8338 82.6187" stroke="white" stroke-width="3" stroke-linecap="round" stroke-linejoin="round"/>
</svg>
