<svg width="87" height="15" viewBox="0 0 87 15" fill="none" xmlns="http://www.w3.org/2000/svg">
<path d="M76.2227 15C75.1236 14.9989 74.0697 14.5596 73.2925 13.7783C72.5153 12.9971 72.0782 11.9378 72.0771 10.833V4.167C72.0785 3.06225 72.5157 2.00312 73.2928 1.22195C74.07 0.44077 75.1236 0.00132321 76.2227 0L82.8544 0C83.9535 0.00132321 85.0071 0.44077 85.7843 1.22195C86.5615 2.00312 86.9986 3.06225 87 4.167V10.834C86.9986 11.9387 86.5614 12.9977 85.7842 13.7787C85.0071 14.5597 83.9534 14.9989 82.8544 15H76.2227ZM75.393 7.5C75.3928 8.3242 75.6358 9.12994 76.0912 9.81533C76.5466 10.5007 77.1939 11.035 77.9514 11.3505C78.7089 11.6661 79.5425 11.7487 80.3467 11.5881C81.1509 11.4274 81.8897 11.0306 82.4696 10.4479C83.0494 9.86514 83.4443 9.12265 83.6044 8.31431C83.7644 7.50596 83.6824 6.66807 83.3686 5.90659C83.0549 5.14511 82.5236 4.49426 81.8418 4.03634C81.1601 3.57842 80.3585 3.334 79.5386 3.334C78.4397 3.33532 77.3861 3.77463 76.609 4.55559C75.8319 5.33656 75.3946 6.39542 75.393 7.5ZM83.6841 2.5C83.6843 2.66467 83.7331 2.82558 83.8242 2.96241C83.9153 3.09925 84.0448 3.20586 84.1962 3.26878C84.3475 3.33171 84.5141 3.34812 84.6747 3.31594C84.8354 3.28377 84.983 3.20446 85.0988 3.08802C85.2147 2.97158 85.2936 2.82325 85.3256 2.66176C85.3576 2.50026 85.3412 2.33286 85.2786 2.18069C85.216 2.02852 85.11 1.89841 84.9739 1.8068C84.8377 1.7152 84.6776 1.6662 84.5138 1.666C84.2938 1.666 84.0827 1.75387 83.9271 1.91027C83.7715 2.06668 83.6841 2.27881 83.6841 2.5ZM77.0514 7.5C77.0514 7.00555 77.1973 6.5222 77.4706 6.11107C77.7439 5.69995 78.1323 5.37952 78.5868 5.1903C79.0412 5.00108 79.5413 4.95157 80.0238 5.04804C80.5062 5.1445 80.9494 5.3826 81.2972 5.73223C81.6451 6.08186 81.8819 6.52732 81.9779 7.01227C82.0739 7.49723 82.0246 7.99989 81.8364 8.45671C81.6481 8.91352 81.3293 9.30397 80.9203 9.57867C80.5113 9.85338 80.0305 10 79.5386 10C78.8789 10 78.2463 9.73661 77.7799 9.26777C77.3135 8.79893 77.0514 8.16304 77.0514 7.5Z" fill="white"/>
<path d="M51.1855 2.463C50.6283 2.71745 50.0348 2.88213 49.4266 2.951C50.0582 2.5586 50.5309 1.95375 50.7607 1.244C50.1626 1.60297 49.5052 1.85092 48.8197 1.976C48.5359 1.66259 48.189 1.41346 47.8021 1.24519C47.4151 1.07691 46.9969 0.993331 46.5754 1C45.7716 1.00238 45.0014 1.32437 44.4331 1.89566C43.8647 2.46694 43.5444 3.24109 43.542 4.049C43.5321 4.29459 43.5524 4.54047 43.6027 4.781C42.3831 4.72383 41.1897 4.40599 40.1019 3.84868C39.0141 3.29137 38.057 2.50739 37.2944 1.549C37.0265 2.0347 36.8807 2.57879 36.8696 3.134C36.8664 3.63872 36.9864 4.13652 37.219 4.58384C37.4516 5.03117 37.7896 5.4144 38.2037 5.7C37.7342 5.64944 37.2801 5.5024 36.8696 5.268V5.329C36.8727 6.04704 37.1216 6.74211 37.5746 7.29737C38.0275 7.85262 38.6568 8.23422 39.3567 8.378C39.0991 8.44835 38.8345 8.48927 38.5678 8.5C38.3637 8.50714 38.1596 8.48662 37.9609 8.439C38.1483 9.05344 38.5259 9.59173 39.0387 9.97554C39.5515 10.3594 40.1728 10.5687 40.8122 10.573C39.7328 11.454 38.3813 11.9287 36.9909 11.915C36.7466 11.925 36.502 11.9046 36.2627 11.854C37.6635 12.7376 39.2847 13.2043 40.9385 13.2C42.0878 13.208 43.2272 12.9863 44.2905 12.5479C45.3539 12.1095 46.32 11.4631 47.1327 10.6462C47.9453 9.82929 48.5884 8.85822 49.0246 7.78938C49.4608 6.72054 49.6813 5.57524 49.6733 4.42V3.988C50.2779 3.59156 50.7931 3.07204 51.1855 2.463Z" fill="white"/>
<path d="M12.2496 0H2.59955C1.91277 0.00804456 1.25635 0.285788 0.77059 0.773872C0.284832 1.26196 0.00826605 1.92166 0 2.612L0 12.388C0.0238595 13.0662 0.30758 13.7088 0.791853 14.1816C1.27613 14.6544 1.92347 14.9208 2.59856 14.925H7.79568V9.625H6.31036V7.388H7.79568V5.97C7.79489 5.60695 7.8655 5.24731 8.00344 4.91178C8.14139 4.57625 8.34396 4.27143 8.59949 4.01485C8.85503 3.75827 9.1585 3.55499 9.49246 3.41669C9.82641 3.2784 10.1843 3.20781 10.5455 3.209H12.3272V5.448H10.5455C10.3904 5.4579 10.2442 5.5243 10.1343 5.63475C10.0244 5.74519 9.9584 5.89212 9.94854 6.048V7.463H11.8786V9.7H10.0232V14.924H12.3243C13.0107 14.9157 13.6667 14.638 14.1522 14.1501C14.6378 13.6623 14.9143 13.003 14.9228 12.313V2.613C14.8858 1.91938 14.5901 1.26525 14.0946 0.780982C13.5992 0.296714 12.9405 0.0178629 12.2496 0Z" fill="white"/>
</svg>
