<svg width="24" height="28" viewBox="0 0 24 28" fill="none" xmlns="http://www.w3.org/2000/svg">
<path d="M22.5002 11.636C22.5002 19.909 12.0002 27 12.0002 27C12.0002 27 1.50021 19.909 1.50021 11.636C1.48239 8.83325 2.57857 6.1382 4.54766 4.14361C6.51674 2.14901 9.19747 1.01824 12.0002 1C14.803 1.01824 17.4837 2.14901 19.4528 4.14361C21.4219 6.1382 22.518 8.83325 22.5002 11.636V11.636Z" stroke="black" stroke-width="2" stroke-linecap="round" stroke-linejoin="round"/>
<path d="M12.1401 16.004C14.3493 16.004 16.1401 14.2132 16.1401 12.004C16.1401 9.79489 14.3493 8.00403 12.1401 8.00403C9.931 8.00403 8.14014 9.79489 8.14014 12.004C8.14014 14.2132 9.931 16.004 12.1401 16.004Z" stroke="black" stroke-width="2" stroke-linecap="round" stroke-linejoin="round"/>
</svg>
