<svg width="95" height="83" viewBox="0 0 95 83" fill="none" xmlns="http://www.w3.org/2000/svg">
<path d="M86.7384 1.55371C86.7384 1.55371 81.6274 10.2317 67.0515 10.2317C67.0515 10.2317 58.9495 26.8132 47.2886 13.7983C35.6285 26.814 27.5265 10.2317 27.5265 10.2317C12.9574 10.2283 8.25952 1.55371 8.25952 1.55371C8.25952 1.55371 -1.44449 19.2496 3.31247 36.5142L8.25952 30.0198C8.25952 30.0198 8.25954 48.4968 15.6806 56.6046L19.8663 45.2918C19.8663 45.2918 22.9081 63.3921 29.9506 68.2941L33.185 59.8095C33.185 59.8095 40.0518 65.1946 38.7615 80.5537C38.7615 80.5537 58.1332 75.2867 61.8163 59.8095L65.0507 68.2941C72.0906 63.3921 75.1349 45.2918 75.1349 45.2918L79.3208 56.6046C86.7418 48.4968 86.7417 30.0198 86.7417 30.0198L91.6888 36.5109C96.4433 19.2462 86.7384 1.55371 86.7384 1.55371Z" stroke="white" stroke-width="3" stroke-linecap="round" stroke-linejoin="round"/>
</svg>
