<svg width="80" height="116" viewBox="0 0 80 116" fill="none" xmlns="http://www.w3.org/2000/svg">
<path d="M76.7437 49.7072C78.2358 44.0495 78.4012 38.1237 77.2271 32.3916C76.053 26.6595 73.571 21.2759 69.9746 16.6605C66.3783 12.0451 61.7648 8.32253 56.4936 5.78291C51.2223 3.24328 45.4359 1.95523 39.5851 2.01911C33.7344 2.083 27.9774 3.49713 22.7629 6.15125C17.5483 8.80537 13.0172 12.6278 9.5225 17.3206C6.02781 22.0135 3.66394 27.4499 2.61527 33.2062C1.5666 38.9626 1.86146 44.8834 3.47672 50.5071" stroke="white" stroke-width="3" stroke-linecap="round" stroke-linejoin="round"/>
<path d="M76.7489 48.8011C76.7489 48.8011 77.1869 96.2061 60.3639 104.768C54.1099 107.95 49.6929 110.388 46.6099 112.195C44.6056 113.366 42.3262 113.983 40.0049 113.983C37.6837 113.983 35.4042 113.366 33.3999 112.195C30.3179 110.388 25.9 107.951 19.647 104.768C2.82402 96.2061 3.48198 49.5901 3.48198 49.5901C36.332 36.2681 27.472 4.1001 27.472 4.1001" stroke="white" stroke-width="3" stroke-linecap="round" stroke-linejoin="round"/>
<path d="M76.7477 49.1783C76.7477 49.1783 41.5728 49.3242 27.6968 22.1562" stroke="white" stroke-width="3" stroke-linecap="round" stroke-linejoin="round"/>
</svg>
