<svg width="114" height="98" viewBox="0 0 114 98" fill="none" xmlns="http://www.w3.org/2000/svg">
<path d="M100.831 96.0005C100.831 96.0005 97.913 81.9625 107.031 60.8135C107.031 60.8135 109.949 49.1455 101.924 43.8585C101.924 43.8585 104.577 41.1235 112.005 47.5955C112.005 47.5955 103.018 28.5435 93.352 24.7145C93.352 24.7145 99.918 22.8915 103.566 17.7865C103.566 17.7865 91.5279 18.5155 85.3269 15.4165C85.3269 15.4165 93.352 12.6815 96.818 5.02446C96.818 5.02446 92.278 7.00247 83.383 6.49647C79.9267 6.28962 76.5049 5.69214 73.183 4.71547C64.874 2.29947 38.906 -3.26653 21.49 15.0515C20.3883 13.4808 18.8529 12.2651 17.0716 11.5528C15.2902 10.8405 13.3399 10.6625 11.459 11.0405L11.5509 11.0765C12.4061 11.4286 13.1574 11.9929 13.7338 12.7161C14.3102 13.4394 14.6927 14.2977 14.845 15.2099C14.9974 16.1221 14.9146 17.0581 14.6045 17.9294C14.2945 18.8007 13.7674 19.5786 13.073 20.1895C10.2831 22.7109 7.95308 25.6984 6.18705 29.0184C1.8714 37.101 0.841835 46.5374 3.31303 55.3605C6.39103 66.5195 12.021 89.0935 9.29399 95.9995C9.29399 95.9995 19.666 72.8455 20.578 51.3325C20.578 51.3325 55.778 63.3655 94.262 51.3325C94.265 51.3335 92.623 82.6895 100.831 96.0005Z" stroke="white" stroke-width="3" stroke-linecap="round" stroke-linejoin="round"/>
</svg>
