<svg width="28" height="22" viewBox="0 0 28 22" fill="none" xmlns="http://www.w3.org/2000/svg">
<path d="M3.6 1.00034H24.4C25.0757 0.989335 25.7282 1.24602 26.2153 1.71439C26.7024 2.18275 26.9845 2.82477 27 3.50034V18.5003C26.9845 19.1759 26.7024 19.8179 26.2153 20.2863C25.7282 20.7547 25.0757 21.0113 24.4 21.0003H3.6C2.92434 21.0113 2.27176 20.7547 1.78466 20.2863C1.29756 19.8179 1.01549 19.1759 1 18.5003V3.50034C1.01549 2.82477 1.29756 2.18275 1.78466 1.71439C2.27176 1.24602 2.92434 0.989335 3.6 1.00034V1.00034Z" stroke="black" stroke-width="2" stroke-linecap="round" stroke-linejoin="round"/>
<path d="M27 4.38708L14 13.2701L1 4.38708" stroke="black" stroke-width="2" stroke-linecap="round" stroke-linejoin="round"/>
</svg>
