<svg width="94" height="82" viewBox="0 0 94 82" fill="none" xmlns="http://www.w3.org/2000/svg">
<path d="M86.2384 1.5C86.2384 1.5 81.1274 10.178 66.5515 10.178C66.5515 10.178 58.4495 26.7594 46.7886 13.7446C35.1285 26.7603 27.0265 10.178 27.0265 10.178C12.4574 10.1746 7.75952 1.5 7.75952 1.5C7.75952 1.5 -1.94449 19.1959 2.81247 36.4605L7.75952 29.9661C7.75952 29.9661 7.75954 48.443 15.1806 56.5508L19.3663 45.2381C19.3663 45.2381 22.4081 63.3384 29.4506 68.2404L32.685 59.7558C32.685 59.7558 39.5518 65.1409 38.2615 80.5C38.2615 80.5 57.6332 75.233 61.3163 59.7558L64.5507 68.2404C71.5906 63.3384 74.6349 45.2381 74.6349 45.2381L78.8208 56.5508C86.2418 48.443 86.2417 29.9661 86.2417 29.9661L91.1888 36.4572C95.9433 19.1925 86.2384 1.5 86.2384 1.5Z" stroke="white" stroke-width="3" stroke-linecap="round" stroke-linejoin="round"/>
</svg>
