<svg width="111" height="35" viewBox="0 0 111 35" fill="none" xmlns="http://www.w3.org/2000/svg">
<path d="M108.986 2C108.344 4.78537 106.948 7.35206 104.941 9.43236C102.829 11.5911 100.185 13.1875 97.2603 14.0697C94.3359 14.9518 91.2285 15.0904 88.2335 14.4723C81.694 13.1893 78.6946 10.2413 77.4774 8.57396C76.253 6.8336 74.5897 5.42936 72.6475 4.49612C67.1739 1.97944 61.5644 3.9513 58.3123 5.63676C57.4464 6.08683 56.4801 6.32226 55.4987 6.32226C54.5173 6.32226 53.551 6.08683 52.685 5.63676C49.433 3.9513 43.8235 1.97944 38.3499 4.49612C36.4078 5.42961 34.7446 6.8338 33.52 8.57396C32.3163 10.2199 29.3684 13.1259 22.9758 14.4295C19.9528 15.0846 16.8074 14.969 13.8436 14.0937C10.8798 13.2185 8.19783 11.6133 6.05677 9.43316C4.05094 7.35244 2.65484 4.78549 2.0141 2C2.0141 2 -0.260625 50.8028 52.9655 25.9422C53.7566 25.5735 54.6225 25.3822 55.4995 25.3822C56.3765 25.3822 57.2424 25.5735 58.0336 25.9422C111.266 50.8028 108.986 2 108.986 2Z" stroke="white" stroke-width="3" stroke-linecap="round" stroke-linejoin="round"/>
</svg>
