<svg width="42" height="74" viewBox="0 0 42 74" fill="none" xmlns="http://www.w3.org/2000/svg">
<path d="M36.5891 1H5.41113C3.20199 1 1.41113 2.79086 1.41113 5V9.498C1.41113 11.7071 3.20199 13.498 5.41113 13.498H36.5891C38.7983 13.498 40.5891 11.7071 40.5891 9.498V5C40.5891 2.79086 38.7983 1 36.5891 1Z" stroke="white" stroke-width="2" stroke-linecap="round" stroke-linejoin="round"/>
<path d="M5.81543 7.24902H36.1854" stroke="white" stroke-width="2" stroke-linecap="round" stroke-linejoin="round"/>
<path d="M9.02113 13.498C9.01101 14.9808 9.59022 16.4069 10.6314 17.4626C11.6725 18.5184 13.0904 19.1174 14.5731 19.128H27.4271C28.9099 19.1174 30.3277 18.5184 31.3689 17.4626C32.41 16.4069 32.9892 14.9808 32.9791 13.498V13.498" stroke="white" stroke-width="2" stroke-linecap="round" stroke-linejoin="round"/>
<path d="M25.478 19.125V69.075C25.4064 70.1634 24.9076 71.1794 24.0901 71.9015C23.2727 72.6236 22.2029 72.9933 21.114 72.93C20.0253 72.9931 18.9557 72.6232 18.1385 71.9011C17.3212 71.179 16.8225 70.1632 16.751 69.075V19.125" stroke="white" stroke-width="2" stroke-linecap="round" stroke-linejoin="round"/>
</svg>
