<svg width="62" height="53" viewBox="0 0 62 53" fill="none" xmlns="http://www.w3.org/2000/svg">
<path d="M29.0661 28.697H12.0361V43.203H29.0661V28.697Z" stroke="white" stroke-width="3" stroke-linecap="round" stroke-linejoin="round"/>
<path d="M55.4209 23.7729V50.6809" stroke="white" stroke-width="3" stroke-linecap="round" stroke-linejoin="round"/>
<path d="M6.65527 23.8081V50.6821" stroke="white" stroke-width="3" stroke-linecap="round" stroke-linejoin="round"/>
<path d="M59.8466 15.077H2.22559L8.82559 2H53.1586L57.3286 10.152L59.8466 15.077Z" stroke="white" stroke-width="3" stroke-linecap="round" stroke-linejoin="round"/>
<path d="M45.3925 18.986C45.3925 21.863 42.1655 24.197 38.1865 24.197C34.2075 24.197 30.9805 21.863 30.9805 18.986" stroke="white" stroke-width="3" stroke-linecap="round" stroke-linejoin="round"/>
<path d="M59.8478 15.077L59.8038 18.992C59.7831 20.0473 59.3674 21.0564 58.6388 21.82C57.763 22.7501 56.6511 23.4247 55.4218 23.772C54.505 24.0507 53.552 24.1926 52.5938 24.193C51.8856 24.194 51.1793 24.1196 50.4868 23.971C48.9841 23.6756 47.609 22.9242 46.5488 21.819C45.8376 21.0795 45.4229 20.1043 45.3838 19.079V15.079L59.8478 15.077Z" stroke="white" stroke-width="3" stroke-linecap="round" stroke-linejoin="round"/>
<path d="M31.0463 15.075L30.9793 18.988C30.9793 21.867 27.7513 24.188 23.7693 24.188C19.7873 24.188 16.5693 21.863 16.5693 18.988" stroke="white" stroke-width="3" stroke-linecap="round" stroke-linejoin="round"/>
<path d="M2.15234 18.988C2.15234 21.177 4.01534 23.038 6.65234 23.807C7.53098 24.0655 8.44247 24.1951 9.35834 24.1919C13.3403 24.1919 16.5683 21.867 16.5683 18.992V15.075H2.23034L2.15234 18.988Z" stroke="white" stroke-width="3" stroke-linecap="round" stroke-linejoin="round"/>
<path d="M49.8056 50.682V28.697H36.7656V50.682" stroke="white" stroke-width="3" stroke-linecap="round" stroke-linejoin="round"/>
<path d="M59.8466 50.6819H2.22559" stroke="white" stroke-width="3" stroke-linecap="round" stroke-linejoin="round"/>
<path d="M45.2275 38.673V40.705" stroke="white" stroke-width="3" stroke-linecap="round" stroke-linejoin="round"/>
</svg>
