<svg width="127" height="114" viewBox="0 0 127 114" fill="none" xmlns="http://www.w3.org/2000/svg">
<path d="M85.5268 30.11C69.2606 30.5351 60.9979 45.0201 60.9979 45.0201L9.61589 56.7285C-2.56682 49.9279 3.52114 35.2001 3.52114 35.2001L92.2657 14.895" stroke="white" stroke-width="3" stroke-miterlimit="10"/>
<path d="M113.932 9.93853L116.445 9.36471C117.343 9.16089 118.272 9.13506 119.18 9.28872C120.088 9.44237 120.957 9.77252 121.736 10.2601C122.515 10.7477 123.189 11.3832 123.72 12.1302C124.251 12.8771 124.629 13.7208 124.83 14.6127C125.032 15.5047 125.054 16.4274 124.895 17.3279C124.737 18.2284 124.401 19.089 123.906 19.8602C123.411 20.6314 122.768 21.298 122.013 21.8219C121.259 22.3458 120.407 22.7166 119.507 22.913L111.322 24.6771" stroke="white" stroke-width="3" stroke-miterlimit="10"/>
<path d="M94.1247 9.9129C89.7373 22.4471 72.9006 64.1134 33.4126 96.7789C32.3041 97.6825 31.4939 98.8951 31.0865 100.26C30.6791 101.625 30.6933 103.08 31.1271 104.437C32.3663 108.198 35.5153 112.547 43.4858 112.008C56.7106 111.113 108.028 50.4055 114.05 14.194C114.394 12.2627 114.194 10.2747 113.472 8.44893C112.751 6.62314 111.536 5.03027 109.961 3.84568C108.852 3.00972 107.561 2.44479 106.192 2.19666C104.822 1.94853 103.413 2.02422 102.078 2.41756C100.239 2.93131 98.5528 3.88234 97.1669 5.18838C95.781 6.49442 94.7368 8.11609 94.1247 9.9129V9.9129Z" stroke="white" stroke-width="3" stroke-miterlimit="10"/>
<path d="M102.173 22.3778C103.865 22.3778 105.238 21.0159 105.238 19.3358C105.238 17.6558 103.865 16.2938 102.173 16.2938C100.48 16.2938 99.1074 17.6558 99.1074 19.3358C99.1074 21.0159 100.48 22.3778 102.173 22.3778Z" stroke="white" stroke-width="3" stroke-miterlimit="10"/>
</svg>
