<svg width="111" height="35" viewBox="0 0 111 35" fill="none" xmlns="http://www.w3.org/2000/svg">
<path d="M108.986 1.55371C108.344 4.33908 106.948 6.90577 104.941 8.98607C102.829 11.1448 100.185 12.7412 97.2603 13.6234C94.3359 14.5055 91.2285 14.6442 88.2335 14.026C81.694 12.743 78.6946 9.79503 77.4774 8.12767C76.253 6.38731 74.5897 4.98307 72.6475 4.04983C67.1739 1.53315 61.5644 3.50501 58.3123 5.19047C57.4464 5.64054 56.4801 5.87597 55.4987 5.87597C54.5173 5.87597 53.551 5.64054 52.685 5.19047C49.433 3.50501 43.8235 1.53315 38.3499 4.04983C36.4078 4.98332 34.7446 6.38751 33.52 8.12767C32.3163 9.77364 29.3684 12.6796 22.9758 13.9832C19.9528 14.6383 16.8074 14.5227 13.8436 13.6474C10.8798 12.7722 8.19783 11.167 6.05677 8.98687C4.05094 6.90616 2.65484 4.3392 2.0141 1.55371C2.0141 1.55371 -0.260625 50.3565 52.9655 25.4959C53.7566 25.1272 54.6225 24.9359 55.4995 24.9359C56.3765 24.9359 57.2424 25.1272 58.0336 25.4959C111.266 50.3565 108.986 1.55371 108.986 1.55371Z" stroke="white" stroke-width="3" stroke-linecap="round" stroke-linejoin="round"/>
</svg>
