<svg width="28" height="28" viewBox="0 0 28 28" fill="none" xmlns="http://www.w3.org/2000/svg">
<path d="M26.9994 20.4661V24.3801C27.0005 24.7439 26.9256 25.1038 26.7796 25.437C26.6335 25.7701 26.4194 26.069 26.1511 26.3146C25.8828 26.5602 25.5662 26.7471 25.2215 26.8633C24.8768 26.9794 24.5116 27.0223 24.1494 26.9891C20.1276 26.5535 16.2637 25.1819 12.8674 22.9841C9.70985 20.9822 7.03179 18.3096 5.02342 15.1561C2.81462 11.7536 1.43971 7.87797 1.01042 3.84414C0.978056 3.48295 1.02129 3.11897 1.13737 2.7754C1.25344 2.43184 1.43981 2.11622 1.6846 1.84867C1.9294 1.58111 2.22724 1.36748 2.55915 1.22138C2.89107 1.07529 3.24977 0.999945 3.61242 1.00014H7.53442C8.16817 0.993552 8.78271 1.21752 9.2636 1.63035C9.74449 2.04317 10.059 2.61671 10.1484 3.24414C10.314 4.49678 10.6209 5.72663 11.0634 6.91014C11.2393 7.37716 11.2774 7.88485 11.1731 8.37287C11.0689 8.86089 10.8267 9.30873 10.4754 9.66314L8.81542 11.3201C10.6781 14.5878 13.388 17.2922 16.6594 19.1481L18.3194 17.4911C18.6752 17.1403 19.1239 16.8986 19.6126 16.7946C20.1013 16.6906 20.6096 16.7286 21.0774 16.9041C22.2635 17.3457 23.4956 17.652 24.7504 17.8171C25.385 17.9058 25.9649 18.2247 26.3796 18.7132C26.7943 19.2016 27.0149 19.8256 26.9994 20.4661Z" stroke="black" stroke-width="2" stroke-linecap="round" stroke-linejoin="round"/>
</svg>
