<svg width="88" height="15" viewBox="0 0 88 15" fill="none" xmlns="http://www.w3.org/2000/svg">
<path d="M76.7227 15C75.6236 14.9989 74.5697 14.5596 73.7925 13.7783C73.0153 12.9971 72.5782 11.9378 72.5771 10.833V4.167C72.5785 3.06225 73.0157 2.00312 73.7928 1.22195C74.57 0.44077 75.6236 0.00132321 76.7227 0L83.3544 0C84.4535 0.00132321 85.5071 0.44077 86.2843 1.22195C87.0615 2.00312 87.4986 3.06225 87.5 4.167V10.834C87.4986 11.9387 87.0614 12.9977 86.2842 13.7787C85.5071 14.5597 84.4534 14.9989 83.3544 15H76.7227ZM75.893 7.5C75.8928 8.3242 76.1358 9.12994 76.5912 9.81533C77.0466 10.5007 77.6939 11.035 78.4514 11.3505C79.2089 11.6661 80.0425 11.7487 80.8467 11.5881C81.6509 11.4274 82.3897 11.0306 82.9696 10.4479C83.5494 9.86514 83.9443 9.12265 84.1044 8.31431C84.2644 7.50596 84.1824 6.66807 83.8686 5.90659C83.5549 5.14511 83.0236 4.49426 82.3418 4.03634C81.6601 3.57842 80.8585 3.334 80.0386 3.334C78.9397 3.33532 77.8861 3.77463 77.109 4.55559C76.3319 5.33656 75.8946 6.39542 75.893 7.5ZM84.1841 2.5C84.1843 2.66467 84.2331 2.82558 84.3242 2.96241C84.4153 3.09925 84.5448 3.20586 84.6962 3.26878C84.8475 3.33171 85.0141 3.34812 85.1747 3.31594C85.3354 3.28377 85.483 3.20446 85.5988 3.08802C85.7147 2.97158 85.7936 2.82325 85.8256 2.66176C85.8576 2.50026 85.8412 2.33286 85.7786 2.18069C85.716 2.02852 85.61 1.89841 85.4739 1.8068C85.3377 1.7152 85.1776 1.6662 85.0138 1.666C84.7938 1.666 84.5827 1.75387 84.4271 1.91027C84.2715 2.06668 84.1841 2.27881 84.1841 2.5ZM77.5514 7.5C77.5514 7.00555 77.6973 6.5222 77.9706 6.11107C78.2439 5.69995 78.6323 5.37952 79.0868 5.1903C79.5412 5.00108 80.0413 4.95157 80.5238 5.04804C81.0062 5.1445 81.4494 5.3826 81.7972 5.73223C82.1451 6.08186 82.3819 6.52732 82.4779 7.01227C82.5739 7.49723 82.5246 7.99989 82.3364 8.45671C82.1481 8.91352 81.8293 9.30397 81.4203 9.57867C81.0113 9.85338 80.5305 10 80.0386 10C79.3789 10 78.7463 9.73661 78.2799 9.26777C77.8135 8.79893 77.5514 8.16304 77.5514 7.5Z" fill="white"/>
<path d="M51.6855 2.463C51.1283 2.71745 50.5348 2.88213 49.9266 2.951C50.5582 2.5586 51.0309 1.95375 51.2607 1.244C50.6626 1.60297 50.0052 1.85092 49.3197 1.976C49.0359 1.66259 48.689 1.41346 48.3021 1.24519C47.9151 1.07691 47.4969 0.993331 47.0754 1C46.2716 1.00238 45.5014 1.32437 44.9331 1.89566C44.3647 2.46694 44.0444 3.24109 44.042 4.049C44.0321 4.29459 44.0524 4.54047 44.1027 4.781C42.8831 4.72383 41.6897 4.40599 40.6019 3.84868C39.5141 3.29137 38.557 2.50739 37.7944 1.549C37.5265 2.0347 37.3807 2.57879 37.3696 3.134C37.3664 3.63872 37.4864 4.13652 37.719 4.58384C37.9516 5.03117 38.2896 5.4144 38.7037 5.7C38.2342 5.64944 37.7801 5.5024 37.3696 5.268V5.329C37.3727 6.04704 37.6216 6.74211 38.0746 7.29737C38.5275 7.85262 39.1568 8.23422 39.8567 8.378C39.5991 8.44835 39.3345 8.48927 39.0678 8.5C38.8637 8.50714 38.6596 8.48662 38.4609 8.439C38.6483 9.05344 39.0259 9.59173 39.5387 9.97554C40.0515 10.3594 40.6728 10.5687 41.3122 10.573C40.2328 11.454 38.8813 11.9287 37.4909 11.915C37.2466 11.925 37.002 11.9046 36.7627 11.854C38.1635 12.7376 39.7847 13.2043 41.4385 13.2C42.5878 13.208 43.7272 12.9863 44.7905 12.5479C45.8539 12.1095 46.82 11.4631 47.6327 10.6462C48.4453 9.82929 49.0884 8.85822 49.5246 7.78938C49.9608 6.72054 50.1813 5.57524 50.1733 4.42V3.988C50.7779 3.59156 51.2931 3.07204 51.6855 2.463Z" fill="white"/>
<path d="M12.7496 0H3.09955C2.41277 0.00804456 1.75635 0.285788 1.27059 0.773872C0.784832 1.26196 0.508266 1.92166 0.5 2.612L0.5 12.388C0.523859 13.0662 0.80758 13.7088 1.29185 14.1816C1.77613 14.6544 2.42347 14.9208 3.09856 14.925H8.29568V9.625H6.81036V7.388H8.29568V5.97C8.29489 5.60695 8.3655 5.24731 8.50344 4.91178C8.64139 4.57625 8.84396 4.27143 9.09949 4.01485C9.35503 3.75827 9.6585 3.55499 9.99246 3.41669C10.3264 3.2784 10.6843 3.20781 11.0455 3.209H12.8272V5.448H11.0455C10.8904 5.4579 10.7442 5.5243 10.6343 5.63475C10.5244 5.74519 10.4584 5.89212 10.4485 6.048V7.463H12.3786V9.7H10.5232V14.924H12.8243C13.5107 14.9157 14.1667 14.638 14.6522 14.1501C15.1378 13.6623 15.4143 13.003 15.4228 12.313V2.613C15.3858 1.91938 15.0901 1.26525 14.5946 0.780982C14.0992 0.296714 13.4405 0.0178629 12.7496 0Z" fill="white"/>
</svg>
